<?xml version="1.0" encoding="UTF-8"?>
<svg width="1200" height="630" viewBox="0 0 1200 630" fill="none" xmlns="http://www.w3.org/2000/svg">
  <!-- Background with slight gradient -->
  <rect width="1200" height="630" rx="12" fill="url(#paint0_linear)" />
  
  <!-- Header Section -->
  <rect x="30" y="30" width="1140" height="80" rx="8" fill="#1E1E2E" />
  <text x="50" y="80" font-family="Inter, sans-serif" font-size="24" font-weight="600" fill="#FFFFFF">SEO Cluster Analysis Report</text>
  <text x="1000" y="80" font-family="Inter, sans-serif" font-size="16" fill="#A9A9B8">Dashboard</text>
  
  <!-- Main Content Area -->
  <rect x="30" y="130" width="740" height="470" rx="8" fill="#1E1E2E" />
  
  <!-- Chart Area -->
  <rect x="50" y="160" width="700" height="300" rx="6" fill="#252538" />
  <text x="70" y="190" font-family="Inter, sans-serif" font-size="18" font-weight="600" fill="#FFFFFF">Topical Clusters Distribution</text>
  
  <!-- Fake chart bars -->
  <rect x="100" y="240" width="100" height="190" rx="4" fill="#8B5CF6" opacity="0.8" />
  <rect x="220" y="280" width="100" height="150" rx="4" fill="#9333EA" opacity="0.8" />
  <rect x="340" y="300" width="100" height="130" rx="4" fill="#A855F7" opacity="0.8" />
  <rect x="460" y="330" width="100" height="100" rx="4" fill="#C084FC" opacity="0.8" />
  <rect x="580" y="360" width="100" height="70" rx="4" fill="#D8B4FE" opacity="0.8" />
  
  <!-- Labels -->
  <text x="125" y="450" font-family="Inter, sans-serif" font-size="12" fill="#FFFFFF" text-anchor="middle">Cluster 1</text>
  <text x="270" y="450" font-family="Inter, sans-serif" font-size="12" fill="#FFFFFF" text-anchor="middle">Cluster 2</text>
  <text x="390" y="450" font-family="Inter, sans-serif" font-size="12" fill="#FFFFFF" text-anchor="middle">Cluster 3</text>
  <text x="510" y="450" font-family="Inter, sans-serif" font-size="12" fill="#FFFFFF" text-anchor="middle">Cluster 4</text>
  <text x="630" y="450" font-family="Inter, sans-serif" font-size="12" fill="#FFFFFF" text-anchor="middle">Cluster 5</text>
  
  <!-- Article Recommendations Section -->
  <rect x="50" y="480" width="700" height="100" rx="6" fill="#252538" />
  <text x="70" y="510" font-family="Inter, sans-serif" font-size="18" font-weight="600" fill="#FFFFFF">Article Recommendations</text>
  <text x="70" y="540" font-family="Inter, sans-serif" font-size="14" fill="#A9A9B8">• 5 Quick and Easy Mushroom Recipes for Busy Weeknights</text>
  <text x="70" y="565" font-family="Inter, sans-serif" font-size="14" fill="#A9A9B8">• The Ultimate Guide to Mushroom Pairings with Wine</text>
  
  <!-- Sidebar -->
  <rect x="790" y="130" width="380" height="470" rx="8" fill="#1E1E2E" />
  
  <!-- Sitemap Stats -->
  <text x="810" y="160" font-family="Inter, sans-serif" font-size="18" font-weight="600" fill="#FFFFFF">Sitemap Statistics</text>
  
  <!-- Stats cards -->
  <rect x="810" y="180" width="340" height="80" rx="6" fill="#252538" />
  <text x="830" y="215" font-family="Inter, sans-serif" font-size="16" fill="#A9A9B8">Total URLs</text>
  <text x="830" y="245" font-family="Inter, sans-serif" font-size="24" font-weight="600" fill="#FFFFFF">127</text>
  
  <rect x="810" y="270" width="340" height="80" rx="6" fill="#252538" />
  <text x="830" y="305" font-family="Inter, sans-serif" font-size="16" fill="#A9A9B8">Main Domain</text>
  <text x="830" y="335" font-family="Inter, sans-serif" font-size="20" font-weight="600" fill="#FFFFFF">example.com</text>
  
  <rect x="810" y="360" width="340" height="80" rx="6" fill="#252538" />
  <text x="830" y="395" font-family="Inter, sans-serif" font-size="16" fill="#A9A9B8">URL Path Depth</text>
  <text x="830" y="425" font-family="Inter, sans-serif" font-size="24" font-weight="600" fill="#FFFFFF">2.3</text>
  
  <rect x="810" y="450" width="340" height="80" rx="6" fill="#252538" />
  <text x="830" y="485" font-family="Inter, sans-serif" font-size="16" fill="#A9A9B8">Analyzed with</text>
  <text x="830" y="515" font-family="Inter, sans-serif" font-size="20" font-weight="600" fill="#FFFFFF">OpenAI GPT-4o</text>
  
  <!-- Gradients -->
  <defs>
    <linearGradient id="paint0_linear" x1="0" y1="0" x2="1200" y2="630" gradientUnits="userSpaceOnUse">
      <stop offset="0" stop-color="#0F0F17" />
      <stop offset="1" stop-color="#1A1A2E" />
    </linearGradient>
  </defs>
</svg>